<?xml version="1.0" standalone="no"?>
<!DOCTYPE svg PUBLIC "-//W3C//DTD SVG 20010904//EN"
 "http://www.w3.org/TR/2001/REC-SVG-20010904/DTD/svg10.dtd">
<svg version="1.0" xmlns="http://www.w3.org/2000/svg"
 width="256.000000pt" height="256.000000pt" viewBox="0 0 256.000000 256.000000"
 preserveAspectRatio="xMidYMid meet">
<metadata>
Created by potrace 1.11, written by Peter Selinger 2001-2013
</metadata>
<g transform="translate(0.000000,256.000000) scale(0.100000,-0.100000)"
fill="#000000" stroke="none">
<path d="M1189 2516 c-2 -2 -35 -6 -74 -10 -169 -16 -366 -91 -540 -205 -99
-65 -260 -228 -330 -336 -298 -454 -275 -1035 56 -1455 118 -150 269 -272 429
-347 117 -55 135 -62 237 -88 178 -45 328 -50 538 -20 62 9 213 58 292 95 352
165 604 476 690 852 41 179 38 410 -8 584 -122 467 -494 816 -969 910 -67 13
-312 28 -321 20z"/>
</g>
</svg>
